<svg xmlns="http://www.w3.org/2000/svg" width="2600" height="1280" viewBox="0 0 2600 1280"><style>text{font-family:"Microsoft YaHei","SimSun",sans-serif;fill:#000}.box{fill:#fff;stroke:#000;stroke-width:3}.line{stroke:#000;stroke-width:3;fill:none}.t1{font-size:34px;font-weight:700}.t2{font-size:28px}.t3{font-size:30px}</style><rect class="box" x="882.0" y="60" width="86.0" height="210"/><text class="t3" x="925.0" y="165.0" text-anchor="middle" dominant-baseline="middle" writing-mode="tb">首页</text><rect class="box" x="1032.0" y="60" width="86.0" height="210"/><text class="t3" x="1075.0" y="165.0" text-anchor="middle" dominant-baseline="middle" writing-mode="tb">活动广场</text><rect class="box" x="1182.0" y="60" width="86.0" height="210"/><text class="t3" x="1225.0" y="165.0" text-anchor="middle" dominant-baseline="middle" writing-mode="tb">视频作品</text><rect class="box" x="1332.0" y="60" width="86.0" height="210"/><text class="t3" x="1375.0" y="165.0" text-anchor="middle" dominant-baseline="middle" writing-mode="tb">社交互动</text><rect class="box" x="1482.0" y="60" width="86.0" height="210"/><text class="t3" x="1525.0" y="165.0" text-anchor="middle" dominant-baseline="middle" writing-mode="tb">商城购物</text><rect class="box" x="1632.0" y="60" width="86.0" height="210"/><text class="t3" x="1675.0" y="165.0" text-anchor="middle" dominant-baseline="middle" writing-mode="tb">个人中心</text><line class="line" x1="925.0" y1="270" x2="925.0" y2="320"/><line class="line" x1="1075.0" y1="270" x2="1075.0" y2="320"/><line class="line" x1="1225.0" y1="270" x2="1225.0" y2="320"/><line class="line" x1="1375.0" y1="270" x2="1375.0" y2="320"/><line class="line" x1="1525.0" y1="270" x2="1525.0" y2="320"/><line class="line" x1="1675.0" y1="270" x2="1675.0" y2="320"/><line class="line" x1="925.0" y1="320" x2="1675.0" y2="320"/><rect class="box" x="1160.0" y="350" width="280.0" height="70"/><text class="t2" x="1300.0" y="385.0" text-anchor="middle" dominant-baseline="middle">前台</text><line class="line" x1="1300.0" y1="320" x2="1300.0" y2="350"/><rect class="box" x="920.0" y="500" width="760.0" height="90"/><text class="t1" x="1300.0" y="545.0" text-anchor="middle" dominant-baseline="middle">街舞信息共享平台</text><line class="line" x1="1300.0" y1="420" x2="1300.0" y2="500"/><rect class="box" x="1160.0" y="660" width="280.0" height="70"/><text class="t2" x="1300.0" y="695.0" text-anchor="middle" dominant-baseline="middle">后台模块</text><line class="line" x1="1300.0" y1="590" x2="1300.0" y2="660"/><line class="line" x1="1300.0" y1="730" x2="1300.0" y2="815"/><line class="line" x1="360.0" y1="815" x2="2240.0" y2="815"/><rect class="box" x="255.0" y="860" width="210.0" height="72"/><text class="t2" x="360.0" y="896.0" text-anchor="middle" dominant-baseline="middle">用户模块</text><line class="line" x1="360.0" y1="815" x2="360.0" y2="860"/><line class="line" x1="360.0" y1="932" x2="360.0" y2="945"/><line class="line" x1="222.0" y1="945" x2="498.0" y2="945"/><rect class="box" x="185.0" y="980" width="74.0" height="170"/><text class="t3" x="222.0" y="1065.0" text-anchor="middle" dominant-baseline="middle" writing-mode="tb">注册登录</text><line class="line" x1="222.0" y1="945" x2="222.0" y2="980"/><rect class="box" x="277.0" y="980" width="74.0" height="170"/><text class="t3" x="314.0" y="1065.0" text-anchor="middle" dominant-baseline="middle" writing-mode="tb">个人资料</text><line class="line" x1="314.0" y1="945" x2="314.0" y2="980"/><rect class="box" x="369.0" y="980" width="74.0" height="170"/><text class="t3" x="406.0" y="1065.0" text-anchor="middle" dominant-baseline="middle" writing-mode="tb">关注收藏</text><line class="line" x1="406.0" y1="945" x2="406.0" y2="980"/><rect class="box" x="461.0" y="980" width="74.0" height="170"/><text class="t3" x="498.0" y="1065.0" text-anchor="middle" dominant-baseline="middle" writing-mode="tb">数据统计</text><line class="line" x1="498.0" y1="945" x2="498.0" y2="980"/><rect class="box" x="725.0" y="860" width="210.0" height="72"/><text class="t2" x="830.0" y="896.0" text-anchor="middle" dominant-baseline="middle">活动模块</text><line class="line" x1="830.0" y1="815" x2="830.0" y2="860"/><line class="line" x1="830.0" y1="932" x2="830.0" y2="945"/><line class="line" x1="692.0" y1="945" x2="968.0" y2="945"/><rect class="box" x="655.0" y="980" width="74.0" height="170"/><text class="t3" x="692.0" y="1065.0" text-anchor="middle" dominant-baseline="middle" writing-mode="tb">活动发布</text><line class="line" x1="692.0" y1="945" x2="692.0" y2="980"/><rect class="box" x="747.0" y="980" width="74.0" height="170"/><text class="t3" x="784.0" y="1065.0" text-anchor="middle" dominant-baseline="middle" writing-mode="tb">活动浏览</text><line class="line" x1="784.0" y1="945" x2="784.0" y2="980"/><rect class="box" x="839.0" y="980" width="74.0" height="170"/><text class="t3" x="876.0" y="1065.0" text-anchor="middle" dominant-baseline="middle" writing-mode="tb">活动报名</text><line class="line" x1="876.0" y1="945" x2="876.0" y2="980"/><rect class="box" x="931.0" y="980" width="74.0" height="170"/><text class="t3" x="968.0" y="1065.0" text-anchor="middle" dominant-baseline="middle" writing-mode="tb">签到收藏</text><line class="line" x1="968.0" y1="945" x2="968.0" y2="980"/><rect class="box" x="1195.0" y="860" width="210.0" height="72"/><text class="t2" x="1300.0" y="896.0" text-anchor="middle" dominant-baseline="middle">视频模块</text><line class="line" x1="1300.0" y1="815" x2="1300.0" y2="860"/><line class="line" x1="1300.0" y1="932" x2="1300.0" y2="945"/><line class="line" x1="1162.0" y1="945" x2="1438.0" y2="945"/><rect class="box" x="1125.0" y="980" width="74.0" height="170"/><text class="t3" x="1162.0" y="1065.0" text-anchor="middle" dominant-baseline="middle" writing-mode="tb">视频发布</text><line class="line" x1="1162.0" y1="945" x2="1162.0" y2="980"/><rect class="box" x="1217.0" y="980" width="74.0" height="170"/><text class="t3" x="1254.0" y="1065.0" text-anchor="middle" dominant-baseline="middle" writing-mode="tb">作品展示</text><line class="line" x1="1254.0" y1="945" x2="1254.0" y2="980"/><rect class="box" x="1309.0" y="980" width="74.0" height="170"/><text class="t3" x="1346.0" y="1065.0" text-anchor="middle" dominant-baseline="middle" writing-mode="tb">点赞收藏</text><line class="line" x1="1346.0" y1="945" x2="1346.0" y2="980"/><rect class="box" x="1401.0" y="980" width="74.0" height="170"/><text class="t3" x="1438.0" y="1065.0" text-anchor="middle" dominant-baseline="middle" writing-mode="tb">评论互动</text><line class="line" x1="1438.0" y1="945" x2="1438.0" y2="980"/><rect class="box" x="1665.0" y="860" width="210.0" height="72"/><text class="t2" x="1770.0" y="896.0" text-anchor="middle" dominant-baseline="middle">社交模块</text><line class="line" x1="1770.0" y1="815" x2="1770.0" y2="860"/><line class="line" x1="1770.0" y1="932" x2="1770.0" y2="945"/><line class="line" x1="1632.0" y1="945" x2="1908.0" y2="945"/><rect class="box" x="1595.0" y="980" width="74.0" height="170"/><text class="t3" x="1632.0" y="1065.0" text-anchor="middle" dominant-baseline="middle" writing-mode="tb">房间列表</text><line class="line" x1="1632.0" y1="945" x2="1632.0" y2="980"/><rect class="box" x="1687.0" y="980" width="74.0" height="170"/><text class="t3" x="1724.0" y="1065.0" text-anchor="middle" dominant-baseline="middle" writing-mode="tb">房间详情</text><line class="line" x1="1724.0" y1="945" x2="1724.0" y2="980"/><rect class="box" x="1779.0" y="980" width="74.0" height="170"/><text class="t3" x="1816.0" y="1065.0" text-anchor="middle" dominant-baseline="middle" writing-mode="tb">分类交流</text><line class="line" x1="1816.0" y1="945" x2="1816.0" y2="980"/><rect class="box" x="1871.0" y="980" width="74.0" height="170"/><text class="t3" x="1908.0" y="1065.0" text-anchor="middle" dominant-baseline="middle" writing-mode="tb">消息发送</text><line class="line" x1="1908.0" y1="945" x2="1908.0" y2="980"/><rect class="box" x="2135.0" y="860" width="210.0" height="72"/><text class="t2" x="2240.0" y="896.0" text-anchor="middle" dominant-baseline="middle">商城模块</text><line class="line" x1="2240.0" y1="815" x2="2240.0" y2="860"/><line class="line" x1="2240.0" y1="932" x2="2240.0" y2="945"/><line class="line" x1="2102.0" y1="945" x2="2378.0" y2="945"/><rect class="box" x="2065.0" y="980" width="74.0" height="170"/><text class="t3" x="2102.0" y="1065.0" text-anchor="middle" dominant-baseline="middle" writing-mode="tb">商品展示</text><line class="line" x1="2102.0" y1="945" x2="2102.0" y2="980"/><rect class="box" x="2157.0" y="980" width="74.0" height="170"/><text class="t3" x="2194.0" y="1065.0" text-anchor="middle" dominant-baseline="middle" writing-mode="tb">购物车</text><line class="line" x1="2194.0" y1="945" x2="2194.0" y2="980"/><rect class="box" x="2249.0" y="980" width="74.0" height="170"/><text class="t3" x="2286.0" y="1065.0" text-anchor="middle" dominant-baseline="middle" writing-mode="tb">订单管理</text><line class="line" x1="2286.0" y1="945" x2="2286.0" y2="980"/><rect class="box" x="2341.0" y="980" width="74.0" height="170"/><text class="t3" x="2378.0" y="1065.0" text-anchor="middle" dominant-baseline="middle" writing-mode="tb">模拟支付</text><line class="line" x1="2378.0" y1="945" x2="2378.0" y2="980"/></svg>